<?xml version="1.0" encoding="UTF-8" standalone="no"?>
<!-- Generator: Adobe Illustrator 24.1.3, SVG Export Plug-In . SVG Version: 6.00 Build 0)  -->

<svg
   version="1.1"
   id="Layer_1"
   x="0px"
   y="0px"
   viewBox="0 0 241 374"
   xml:space="preserve"
   width="241"
   height="374"
   sodipodi:docname="tiny.svg"
   inkscape:version="1.2.2 (b0a8486541, 2022-12-01)"
   xmlns:inkscape="http://www.inkscape.org/namespaces/inkscape"
   xmlns:sodipodi="http://sodipodi.sourceforge.net/DTD/sodipodi-0.dtd"
   xmlns="http://www.w3.org/2000/svg"
   xmlns:svg="http://www.w3.org/2000/svg"><sodipodi:namedview
   id="namedview74"
   pagecolor="#ffffff"
   bordercolor="#000000"
   borderopacity="0.25"
   inkscape:showpageshadow="2"
   inkscape:pageopacity="0.0"
   inkscape:pagecheckerboard="0"
   inkscape:deskcolor="#d1d1d1"
   showgrid="false"
   inkscape:zoom="1.596911"
   inkscape:cx="402.65237"
   inkscape:cy="273.96643"
   inkscape:window-width="3374"
   inkscape:window-height="1403"
   inkscape:window-x="1986"
   inkscape:window-y="0"
   inkscape:window-maximized="1"
   inkscape:current-layer="Layer_1" /><defs
   id="defs106" />
<style
   type="text/css"
   id="style71">
	.st0{fill:#F5B21B;}
	.st1{fill:#283272;}
</style>
<g
   id="g2"
   transform="matrix(0.41793495,0,0,0.43818598,408.97429,21.68851)">
		
		
	</g><path
   class="st0"
   d="m 133.82277,78.479108 c 0,36.457072 -21.06392,69.627752 -62.188719,75.324172 l 58.009369,71.81868 5.26598,-5.69641 L 240.68874,64.72007 V 0 H 69.544376 v 0 c 43.214474,4.425679 64.278394,42.022036 64.278394,78.479108 z"
   id="path1"
   style="fill:#e6ac2c;stroke-width:0.427941" /><path
   class="st1"
   d="M 163.37077,239.77537 240.68874,126.50429 V 248.75818 H 156.68382 Z M 14.753104,122.64826 h 40.038168 c 29.506206,0 44.259316,-22.08458 44.259316,-44.212972 0,-22.128389 -14.75311,-43.073679 -44.259316,-43.073679 H 2.089675 v 0 H 0 V 248.802 H 102.22689 L 14.753104,140.35097 Z"
   id="path2"
   style="fill:#2c356d;stroke-width:0.427941" /><path
   class="st1"
   d="M 0,338.64142 V 272 h 15.03488 v 66.64142 c 0,5.55786 1.80832,10.21588 5.88996,14.45043 4.08163,4.18164 8.62826,6.03426 14.10489,6.03426 5.42495,0 9.97159,-1.85262 14.10489,-6.03426 4.08163,-4.23455 5.88995,-8.89257 5.88995,-14.45043 V 272 h 15.49988 v 66.58849 c 0,9.79242 -3.66831,18.20861 -10.48825,25.19564 C 53.21625,370.77115 45.00132,374 35.49472,374 25.93646,374 17.7732,370.77115 10.95325,363.78413 3.66831,356.7971 0,348.43384 0,338.64142 Z"
   id="path4-6"
   style="fill:#2c356d;stroke-width:0.522953" /><path
   id="path1605-8"
   d="M 87,374 V 272 h 16.23291 a 53.767085,51 0 0 1 0,102 z m 16.23291,-15.39749 a 37.534181,35.60251 0 0 0 0,-71.20502 z m 0,0 v -71.20502"
   class="st0"
   style="fill:#f5b21b;stroke-width:0.690379" /><path
   id="path1607-2"
   d="M 170.524,374 V 272 h 35.84582 a 34.163099,29.349376 0 0 1 0,58.69875 h -17.92291 v -15.3975 h 17.92291 a 34.163099,29.349376 0 0 1 0,58.69875 H 170.524 m 17.92291,-15.39749 h 17.92291 a 16.240191,13.95188 0 0 0 0,-27.90376 h -17.92291 m 0,-15.3975 h 17.92291 a 16.240191,13.95188 0 0 0 0,-27.90376 h -17.92291"
   class="st0"
   style="fill:#f5b21b;stroke-width:0.725427" /></svg>
