<?xml version="1.0" encoding="UTF-8" standalone="no"?>
<!-- Generator: Adobe Illustrator 24.1.3, SVG Export Plug-In . SVG Version: 6.00 Build 0)  -->

<svg
   version="1.1"
   id="Layer_1"
   x="0px"
   y="0px"
   viewBox="0 0 2160 360"
   style="enable-background:new 0 0 991.8 314.6;"
   xml:space="preserve"
   sodipodi:docname="udb-editable.svg"
   inkscape:version="1.2.2 (b0a8486541, 2022-12-01)"
   xmlns:inkscape="http://www.inkscape.org/namespaces/inkscape"
   xmlns:sodipodi="http://sodipodi.sourceforge.net/DTD/sodipodi-0.dtd"
   xmlns="http://www.w3.org/2000/svg"
   xmlns:svg="http://www.w3.org/2000/svg"><defs
   id="defs106" /><sodipodi:namedview
   id="namedview104"
   pagecolor="#ffffff"
   bordercolor="#000000"
   borderopacity="0.25"
   inkscape:showpageshadow="2"
   inkscape:pageopacity="0.0"
   inkscape:pagecheckerboard="0"
   inkscape:deskcolor="#d1d1d1"
   showgrid="true"
   inkscape:zoom="0.99777773"
   inkscape:cx="1030.2896"
   inkscape:cy="-143.81961"
   inkscape:window-width="3374"
   inkscape:window-height="1403"
   inkscape:window-x="1986"
   inkscape:window-y="0"
   inkscape:window-maximized="1"
   inkscape:current-layer="Layer_1"><inkscape:grid
     type="xygrid"
     id="grid469" /></sodipodi:namedview>
<style
   type="text/css"
   id="style71">
	.st0{fill:#F5B21B;}
	.st1{fill:#283272;}
</style>
<g
   id="g101">
	<g
   id="g91">
                <!-- yellow squaRe -->
		<path
   class="st0"
   d="M88,49.2c0,22.9-13.9,43.6-40.9,48.5l38.1,45l3.4-4.8l68.6-97V0H45.7C74.1,2.8,88,26.3,88,49.2z"
   id="path73" />
                <!-- blue squaRe -->
		<path
   class="st1"
   d="M9.7,76.9H36c19.4,0,29.1-13.8,29.1-27.7c0-13.9-9.7-27-29.1-27H0v135.1h67.2L9.7,88V76.9z M107.4,150.3 l50.6-70.7v77.6h-55.6L107.4,150.3z"
   id="path75" />
                <!-- I -->
		<rect
   x="388.7"
   y="26.3"
   class="st1"
   width="22.9"
   height="107.4"
   id="rect77" />
                <!-- S -->
		<path
   class="st1"
   d="M547.8,110.2l-119-0.1v23.6h119.9c9,0,16.6-3.5,22.9-9.7c6.2-6.2,9.7-13.9,9.7-22.9s-3.5-16.6-9.7-22.9 c-6.2-6.2-13.9-9.7-22.9-9.7L461.5,68c-5.1,0-9.3-4.2-9.3-9.3v0v0c0-5.2,4.2-9.3,9.4-9.3l119.7-0.1V26.3H461.4 c-9,0-16.6,3.5-22.9,9.7c-6.2,6.2-9.7,13.9-9.7,22.9c0,9,3.5,16.6,9.7,22.9c6.2,6.2,13.8,9,22.9,9l87.1,0c5.2,0,9.4,4.2,9.3,9.4v0 v0C557.9,105.7,553.4,110.2,547.8,110.2z"
   id="path79" />
                <!-- C -->
		<path
   class="st1"
   d="M 645.7,26.3 h 99.1 v 22.9 h -99.1 c -8.3,0-15.2,2.7-21.5,9 c -6.2,6.2-9,13.2-9,21.5 c 0,8.3,2.8,15.2,9,21.5 c 6.3,6.2,13.2,9,21.5,9 h 99.1 l 0,23.6 h -99 c -14.5,0-27.1-5.6-37.5-16 c -10.4-10.4-15.2-22.9-15.2-37.4 c 0-14.5,4.8-27,15.2-37.4 C618.7,31.9,631.2,26.3,645.7,26.3 z"
   id="path81" />
		<path
   id="path1605"
   d="M 593.1,145.6 l 151.7,0 l 0,22.9 a 75.85 75.85 0 0 1 -151.7 0 z m 22.9,22.9 a 50.95 50.95 0 0 0 105.9 0 z l 105.9 0"
   class="st0" />
                <path
   id="path1607"
   d="M 593.1,255.362 l 151.7,0 l 0,45.8 a 43.65 43.65 0 0 1 -87.3 0 l 0,-22.9 22.9,0 0,22.9 a 43.65 43.65 0 0 1 -87.3 0 l 0 -45.8 m 22.9 22.9 l 0,22.9 a 20.75 20.75 0 0 0 41.5 0 l 0,-22.9 m 22.9 0 l 0,22.9 a 20.75 20.75 0 0 0 41.5 0 l 0,-22.9 "
   class="st0" /><!-- R -->
		<path
   d="M 338.1,69.5 242.5,69.3 V 49.9 l 96.6,-0.2 c 5.2,0 9.4,4.2 9.5,9.4 v 0 0 c -0.1,5.7 -4.8,10.4 -10.5,10.4 z m 34,64.2 -30.5,-42.3 c 8.3,-0.7 15.2,-3.5 20.8,-9.7 6.2,-6.3 9.7,-13.9 9.7,-22.9 0,-9 -3.5,-16.6 -9.7,-22.9 -6.2,-6.3 -13.9,-9.7 -22.9,-9.7 H 219.6 v 107.4 h 22.9 V 91.3 h 70.7 l 30.5,42.3 h 28.4 z"
   id="path85"
   class="st1" />
                <!-- V -->
		<polyline
   class="st0"
   points="859.1,133.7 796.3,26.3 823.2,26.3 872.3,111.5 921.3,26.3 947.8,26.3 885.4,133.7"
   id="polyline87" />
                <!-- dash -->
		<rect
   x="758.7"
   y="70"
   class="st0"
   width="45"
   height="20.8"
   id="rect89" />
	<g
   id="g18">
		<path
   class="st1"
   d="M991.8,43.4c0,9.3-7.3,16.7-16.9,16.7c-9.4,0-17-7.3-17-16.7c0-9.1,7.5-16.5,17-16.5    C984.4,27,991.8,34.3,991.8,43.4z M962.1,43.4c0,7.3,5.4,13.2,12.9,13.2c7.2,0,12.6-5.8,12.6-13.1c0-7.3-5.3-13.3-12.7-13.3    C967.5,30.3,962.1,36.2,962.1,43.4z M972.3,52.1h-3.8V35.6c1.5-0.3,3.6-0.5,6.3-0.5c3.1,0,4.5,0.5,5.7,1.2c0.9,0.7,1.6,2,1.6,3.6    c0,1.8-1.4,3.2-3.4,3.8V44c1.6,0.6,2.5,1.8,3,4c0.5,2.5,0.8,3.5,1.2,4.1h-4.1c-0.5-0.6-0.8-2.1-1.3-4c-0.3-1.8-1.3-2.6-3.4-2.6    h-1.8V52.1z M972.4,42.7h1.8c2.1,0,3.8-0.7,3.8-2.4c0-1.5-1.1-2.5-3.5-2.5c-1,0-1.7,0.1-2.1,0.2V42.7z"
   id="path16" />
	</g>
	</g></g><text
   xml:space="preserve"
   style="fill:#000000;stroke:#ff80b1;stroke-opacity:1"
   x="820"
   y="280"
   id="text186"><tspan
     sodipodi:role="line"
     id="tspan184"
     x="920.90814"
     y="279.16702"
     style="font-style:normal;font-variant:normal;font-weight:normal;font-stretch:normal;font-size:74.6667px;font-family:monospace;-inkscape-font-specification:'monospace, Normal';font-variant-ligatures:normal;font-variant-caps:normal;font-variant-numeric:normal;font-variant-east-asian:normal;fill-opacity:1;stroke-opacity:0.159317"
     class="st1">The single source of truth</tspan></text></svg>
